<?xml version="1.0" encoding="iso-8859-1"?>
<!-- Generator: Adobe Illustrator 19.0.0, SVG Export Plug-In . SVG Version: 6.00 Build 0)  -->
<svg version="1.1" id="Layer_1" xmlns="http://www.w3.org/2000/svg" xmlns:xlink="http://www.w3.org/1999/xlink" x="0px" y="0px"
	 viewBox="0 0 322 322" style="enable-background:new 0 0 322 322;" xml:space="preserve">
<g transform="translate(0 -562.36)">
	<g>
		<g>
			<path d="M160.8,611.36L160.8,611.36c-2.1,0-4.2,0.5-5.8,1.601l-95.1,47.218H14.2c-7.9,0-14.2,6.302-14.2,14.205v98.137
				c0,7.303,6.3,13.605,14.2,13.605h45.7l95.1,47.718c8.9,4.702,20-2.101,20-12.605V625.465C175,617.662,168.7,611.36,160.8,611.36z
				 M147.2,798.731l-77.7-38.815c-2.1-1-4.2-1.601-6.3-1.601H28v-69.826h35.2c2.1,0,4.2-0.5,6.3-1.601l77.7-38.815V798.731z"/>
			<path d="M307.812,709.372h-34.8v-34.8c0-7.9-6.3-14.2-14.2-14.2c-7.9,0.5-14.2,6.8-13.7,14.2v34.8h-34.9
				c-18.9-0.5-18.9,28.5,0,28h34.9v34.8c-0.5,18.9,28.5,18.9,28,0v-34.8h34.8C326.712,737.872,326.712,708.872,307.812,709.372z"/>
		</g>
	</g>
</g>
<g>
</g>
<g>
</g>
<g>
</g>
<g>
</g>
<g>
</g>
<g>
</g>
<g>
</g>
<g>
</g>
<g>
</g>
<g>
</g>
<g>
</g>
<g>
</g>
<g>
</g>
<g>
</g>
<g>
</g>
</svg>
